<svg xmlns="http://www.w3.org/2000/svg" width="16" height="16"
     viewBox="65 0 14 16">
    <g fill="none" fill-rule="evenodd">
        <path fill="#979CA8"
              d="M12.133 12.33H11.2V4.166h.933v8.162zM9.955 2.597h-5.91v-.822h5.91v.822zM2.8 12.33h-.933V4.167H2.8v8.162zm9.493-9.73h-1.405V.833H3.111v1.764H1.707C.764 2.598 0 3.37 0 4.32v7.857c0 .951.764 1.722 1.707 1.722h.781v.935h.934V13.9h7.155v.935h.934V13.9h.782c.943 0 1.707-.77 1.707-1.722V4.32c0-.95-.764-1.722-1.707-1.722z"/>
        <path fill="#979CA9"
              d="M42.643 4.139c0 1.825-1.407 3.304-3.143 3.304-1.737 0-3.144-1.479-3.144-3.304 0-1.825 1.407-3.305 3.144-3.305 1.736 0 3.143 1.48 3.143 3.305zm-3.88 7.353v2.342H33c.714-3.08 3.35-5.37 6.5-5.37s5.785 2.29 6.5 5.37h-5.764v-2.342c0-.429-.33-.775-.736-.775-.407 0-.738.346-.738.775zM74.372 8.02v1.453H69.98V7.901c-.38.39-.688.708-.999 1.025-.252.258-.492.53-.763.765-.308.268-.68.27-.952.05-.355-.29-.36-.754.007-1.14.433-.454.879-.897 1.32-1.345.48-.49.964-.977 1.442-1.47.257-.265.56-.393.929-.39.807.01 1.615.008 2.422.001a1.27 1.27 0 0 1 .96.406c.904.922 1.813 1.84 2.715 2.764.378.388.407.792.096 1.114-.316.328-.74.299-1.123-.088-.53-.534-1.054-1.073-1.581-1.61l-.082.038zm-.107-5.058c.002 1.19-.91 2.121-2.076 2.12-1.169 0-2.09-.93-2.09-2.112 0-1.176.932-2.132 2.082-2.136 1.152-.003 2.082.946 2.084 2.128zm-4.31 7.401l1.669 1.696-1.252 1.17c.415.4.773.742 1.127 1.088.1.097.198.199.277.313.227.324.19.734-.079.991-.27.26-.696.298-.973.017-.742-.753-1.484-1.51-2.175-2.311-.435-.505-.34-1.2.13-1.682.414-.424.833-.845 1.25-1.266.016-.016.04-.023.027-.016zm2.723 1.75l1.717-1.75c.454.46.947.936 1.41 1.441.378.412.347 1.15-.071 1.612a84.688 84.688 0 0 1-2.034 2.156c-.33.34-.783.335-1.078.025-.292-.307-.276-.755.054-1.098.395-.41.8-.809 1.215-1.226l-1.213-1.16z"/>
    </g>
</svg>
