<svg xmlns="http://www.w3.org/2000/svg" width="94" height="94" viewBox="0 0 94 94">
    <path fill="#2E3B4E" fill-rule="evenodd"
          d="M75.998 46.512L59.177 63.355a2.77 2.77 0 0 1-1.966.815 2.784 2.784 0 0 1-1.965-4.752l16.82-16.843a2.78 2.78 0 0 1 3.932 0 2.788 2.788 0 0 1 0 3.937m-29.389 8.193c-5.979 0-10.843-4.87-10.843-10.857 0-5.987 4.864-10.857 10.843-10.857 5.98 0 10.845 4.87 10.845 10.857 0 5.987-4.864 10.857-10.845 10.857m-8.633 8.65a2.77 2.77 0 0 1-1.966.815 2.77 2.77 0 0 1-1.967-.815l-16.82-16.843a2.786 2.786 0 0 1 0-3.937 2.781 2.781 0 0 1 3.932 0l16.82 16.844a2.786 2.786 0 0 1 0 3.936M46.61 0C20.868 0 0 20.895 0 46.67c0 25.774 20.868 46.67 46.61 46.67s46.61-20.896 46.61-46.67C93.22 20.895 72.352 0 46.61 0m0 38.558a5.293 5.293 0 0 0-5.284 5.29c0 2.917 2.37 5.29 5.283 5.29a5.293 5.293 0 0 0 5.285-5.29c0-2.916-2.371-5.29-5.285-5.29"/>
</svg>
