<svg xmlns="http://www.w3.org/2000/svg" width="178" height="26" viewBox="0 0 178 26">
    <g fill="#303950" fill-rule="evenodd">
        <path d="M58.333 17.5H55.4v3h2.933v-3zm0-6H55.4v3h2.933v-3zm13.2-6H52.467v-3h19.066v3zm0 18H52.467V7h19.066v16.5zM72.267 1H51.733a.742.742 0 0 0-.733.75v22.5c0 .414.328.75.733.75h20.534a.742.742 0 0 0 .733-.75V1.75a.742.742 0 0 0-.733-.75zm-8.8 10.5h-2.934v3h2.934v-3zm5.133 6h-2.933v3H68.6v-3zm0-6h-2.933v3H68.6v-3zm-5.133 6h-2.934v3h2.934v-3zM23.67 22.405H2.654a.808.808 0 0 1-.808-.809V5.461l10.67 8.541c.02.028.04.056.066.081.16.16.37.236.58.232.209.004.42-.072.579-.232.025-.025.045-.053.066-.08l10.67-8.542v16.135c0 .447-.362.81-.809.81zm-.673-17.78l-9.835 7.872-9.834-7.873h19.669zm2.865-1.394a.79.79 0 0 0-.673-.223H1.136a.79.79 0 0 0-.905.794v19.413c0 .445.36.807.807.807h24.248a.808.808 0 0 0 .808-.808v-19.4l-.001-.01a.788.788 0 0 0-.231-.573zM172.56 21.196c.364-.332.612-.787.939-1.161a2.72 2.72 0 0 0-.463-.698c-.508-.517-4.428-1.729-4.786-1.837 1.78-1.26 3-3.462 3-6 0-2.999-.913-5.999-5.24-6-4.14-.002-5.26 3.001-5.26 6 0 2.535 1.284 4.744 3.06 6.007-.225.067-4.296 1.283-4.836 1.83-.18.181-.333.428-.469.701.338.388.532.79.895 1.127A10.477 10.477 0 0 1 155.5 13c0-5.798 4.701-10.5 10.5-10.5s10.5 4.702 10.5 10.5c0 3.317-1.54 6.272-3.94 8.196M166 23.5c.127 0 .25-.014.376-.02h-.45-.31l.166.01a10.45 10.45 0 0 1-6.284-2.249c.162-.44.597-.863.864-1.022.705-.424 3.443-1.638 4.063-1.911l.075-.808V16c-1.46-.77-2.25-2.4-2.25-4.5 0-3.75.739-4.505 3.749-4.505 3.01 0 3.751.755 3.751 4.505 0 2.1-.79 3.73-2.25 4.5v1.5l.073.803c.634.264 3.558 1.49 4.27 1.916.247.147.543.61.66 1.021A10.45 10.45 0 0 1 166 23.5M166 1c-6.627 0-12 5.373-12 12 0 6.628 5.373 12 12 12 6.628 0 12-5.372 12-12 0-6.627-5.372-12-12-12M122.243 17.742l-8.416 5.89v-9.825l8.416-5.323v9.258zm-8.896-5.54c-.128.038-.249.09-.362.155a1.72 1.72 0 0 0-.322-.143l-8.934-5.412 9.239-5.186 9.274 5.186-.032.02-8.863 5.38zm-1.203 11.43l-8.415-5.89V8.484l8.415 5.323v9.825zm11.782-15.148c0-.235-.049-.459-.136-.662.34-.637.249-1.443-.288-1.98L113.725.426c-1.102-.535-.294-.6-1.538 0l-9.7 5.416a1.678 1.678 0 0 0-.296 1.963 1.673 1.673 0 0 0-.145.68v9.257c0 .93.753 1.683 1.683 1.683l8.415 5.891c.308 0 .593-.088.842-.233.248.145.533.233.841.233l9.257-5.891c.93 0 .842-.753.842-1.683V8.484z"/>
    </g>
</svg>
