<svg xmlns="http://www.w3.org/2000/svg" xmlns:xlink="http://www.w3.org/1999/xlink" width="18" height="18" viewBox="0 0 18 18">
    <defs>
        <path id="a" d="M0 .413h12v7.769H0z"/>
        <path id="c" d="M0 .413h12v7.769H0"/>
        <path id="e" d="M0-.587h12v7.769H0"/>
    </defs>
    <g fill="none" fill-rule="evenodd">
        <circle cx="9" cy="9" r="9" fill="#6CD5E2"/>
        <g transform="translate(3 5)">
            <mask id="b" fill="#fff">
                <use xlink:href="#a"/>
            </mask>
            <path fill="#FFF" d="M10.318 5.226a.252.252 0 0 1-.238.254l-1.841.086a.613.613 0 0 1-.627-.699l.004-.023a.252.252 0 0 1 .247-.221h2.205c.138 0 .25.114.25.255v.348zm-6.446.34l-1.84-.086a.252.252 0 0 1-.239-.254v-.348c0-.14.112-.255.25-.255h2.205c.125 0 .23.095.248.221l.003.023a.613.613 0 0 1-.627.699zm-.708-4.012c.14-.364.501-.604.905-.604h3.862c.404 0 .765.24.905.604l.96 2.05H2.204l.96-2.05zM10.76 4.15l-.336-.743-1.156-2.314a1.016 1.016 0 0 0-.953-.68h-4.63c-.425 0-.806.27-.953.68L1.576 3.408l-.336.743a1.43 1.43 0 0 0-.108.804l.298 1.942a.804.804 0 0 0 .611.604c-.003.025-.014.047-.014.073 0 .336.266.608.594.608h.52a.6.6 0 0 0 .594-.608c0-.015-.007-.028-.009-.044h4.548c-.002.016-.009.03-.009.044a.6.6 0 0 0 .594.608h.52a.601.601 0 0 0 .594-.608c0-.026-.011-.048-.014-.073a.804.804 0 0 0 .611-.604l.298-1.942a1.423 1.423 0 0 0-.108-.804z" mask="url(#b)"/>
            <mask id="d" fill="#fff">
                <use xlink:href="#c"/>
            </mask>
            <path fill="#FFF" d="M11.724 3.755H10.44c-.212 0-.345-.284-.24-.513l.127-.278c.048-.108.14-.175.24-.175h1.157c.152 0 .276.154.276.344v.278c0 .19-.124.344-.276.344" mask="url(#d)"/>
            <mask id="f" fill="#fff">
                <use xlink:href="#e"/>
            </mask>
            <path fill="#FFF" d="M.276 3.755H1.56c.211 0 .344-.284.24-.513l-.127-.278c-.048-.108-.14-.175-.24-.175H.276c-.152 0-.276.154-.276.344v.278c0 .19.124.344.276.344" mask="url(#f)"/>
        </g>
    </g>
</svg>
