<svg xmlns="http://www.w3.org/2000/svg" xmlns:xlink="http://www.w3.org/1999/xlink" width="18" height="18" viewBox="0 0 18 18">
    <defs>
        <path id="a" d="M.566.142h8.996V8.86H.566z"/>
    </defs>
    <g fill="none" fill-rule="evenodd">
        <circle cx="9" cy="9" r="9" fill="#ED5096"/>
        <g transform="translate(4 4)">
            <path fill="#FFF" d="M7.316 2.358c0 1.224-.974 2.216-2.175 2.216-1.202 0-2.176-.992-2.176-2.216 0-1.224.974-2.216 2.176-2.216 1.201 0 2.175.992 2.175 2.216"/>
            <mask id="b" fill="#fff">
                <use xlink:href="#a"/>
            </mask>
            <path fill="#FFF" d="M4.554 7.403c0-.287.228-.52.51-.52.281 0 .51.233.51.52v1.57h3.988c-.495-2.065-2.318-3.6-4.498-3.6S1.06 6.908.566 8.973h3.988v-1.57z" mask="url(#b)"/>
        </g>
    </g>
</svg>
